<?xml version="1.0" encoding="UTF-8"?>
<svg id="Layer_2" data-name="Layer 2" xmlns="http://www.w3.org/2000/svg" viewBox="0 0 1092 602.2">
  <defs>
    <style>
      .cls-1 {
        fill: #fefefd;
      }

      .cls-2 {
        fill: #f6a220;
      }

      .cls-3 {
        fill: #f6a21e;
      }
    </style>
  </defs>
  <g id="Layer_1-2" data-name="Layer 1">
    <path class="cls-3" d="M29,373.05l5.63-3.88c186.3-91.48,371.07-186.11,557.33-277.67C686.14,45.21,760.59,4.1,869.45,0l222.55.06-5.99,6.5c-20.28,14.64-38.56,36.03-58.54,50.46-2.06,1.49-3.19,2.7-5.93,3.07-16.8,2.29-40.4-1.16-58.09-1.09-65.97.29-104.27,7.43-163.65,35.35-49.02,23.05-96.38,49.99-144.81,74.18l411,204.5h-216.5l-301.06-147.97-4.65,1.26-292.29,146.71H29Z"/>
    <path class="cls-2" d="M312,600.05l27.48-158.02c.73-1.13,1.87-.9,2.97-1.03,4.72-.59,19.44-.62,24.1,0,1.39.19,2.61.21,3.51,1.49l48.44,93.55,17.51-95h31.5l-26.55,158.95c-5.38-.81-25.25,1.7-28.44-.96l-50.02-97-18.49,98.01h-32Z"/>
    <path class="cls-2" d="M722,600.05l-22.46-50.07c-3.89.78-21.5-1.22-23.08,1.03l-9.96,49.04h-31.5l29.45-159.06c23.16,1.44,48.16-1.7,71.09.02,39.87,2.99,47.89,38.25,33.63,70.71-7,15.94-18.82,25.42-34.1,32.93l24.5,53.36c.87.62-.95,2.04-1.07,2.04h-36.5ZM682,517.05h41.5c1.57,0,8.03-4.11,9.52-5.48,7.81-7.14,13.36-23.05,5.99-32.03-9.4-11.47-35.03-4.6-48.43-6.55l-8.58,44.06Z"/>
    <path class="cls-2" d="M922,600.05l28.61-159.06c36.96,2.6,78.73-10.17,105.9,22.05,27.87,33.04,10.98,89.01-19.04,114.99-10.88,9.41-33.46,22.03-47.97,22.03h-67.5ZM961.5,568.05h32c3.2,0,14.66-6.02,17.83-8.17,24.56-16.67,37.01-61.73,9.61-81.27-12.28-8.76-29.61-4.76-43.8-5.43l-16.95,92.6c-.3.82.75,2.11,1.31,2.26Z"/>
    <polygon class="cls-2" points="60 441.05 49 504.05 107 504.05 118 441.05 150 441.05 121.5 600.05 90 600.05 101 537.05 43 537.05 32 600.05 0 600.05 28.5 441.05 60 441.05"/>
    <path class="cls-2" d="M920,441.05l-5.01,31.99-76.98.02-5.01,30.99h67l-5.1,30.89-67.85.16-5.05,32.95h77c-2.03,10.57-2.62,22.18-6.5,32h-108l28-159h107.5ZM897,569.05h-74v1h74v-1Z"/>
    <path class="cls-2" d="M214,441.05c-3.37,30.5-11.71,60.42-15.71,90.79-1.9,14.44-3.05,31.2,13.91,36.51,25.02,7.84,41.29-10.73,46.5-33.1,6.74-28.95,9.13-60.38,15.56-89.44.24-1.1,1.28-4.76,2.24-4.76h31.5c-5.85,31.49-9.44,63.77-16.49,95.01-8.66,38.4-29.13,64.22-70.96,66.03-44.05,1.91-61.5-22.49-56.42-64.42,3.4-28.07,10.18-62.99,16.18-90.82.25-1.17.95-5.81,2.19-5.81h31.5Z"/>
    <path class="cls-2" d="M496,473.05l5.94-31.56c37.04.92,83.28-9.66,109.47,23.64,24.1,30.64,8.4,84.94-17.89,109.94-10.2,9.71-37.05,24.97-51.03,24.97h-68c-.73,0-1.09-1.22-1.09-2.05-.02-2.82,3.85-24.51,4.83-27.22.35-.98.81-1.74,1.76-2.24l69.27-.73c35.09-8.54,57.34-69.7,22.06-90.58-1.78-1.05-8.25-4.18-9.82-4.18h-65.5Z"/>
    <path class="cls-1" d="M682,517.05l8.58-44.06c13.4,1.95,39.03-4.93,48.43,6.55,7.37,8.99,1.82,24.89-5.99,32.03-1.49,1.36-7.95,5.48-9.52,5.48h-41.5Z"/>
    <path class="cls-1" d="M961.5,568.05c-.56-.16-1.62-1.44-1.31-2.26l16.95-92.6c14.19.67,31.52-3.33,43.8,5.43,27.4,19.54,14.95,64.6-9.61,81.27-3.17,2.15-14.63,8.17-17.83,8.17h-32Z"/>
    <rect class="cls-3" x="823" y="569.05" width="74" height="1"/>
  </g>
</svg>