<?xml version="1.0" encoding="UTF-8"?>
<svg id="Layer_2" data-name="Layer 2" xmlns="http://www.w3.org/2000/svg" viewBox="0 0 1622.68 580">
  <defs>
    <style>
      .cls-1 {
        fill: #231f20;
      }
    </style>
  </defs>
  <g id="Layer_1-2" data-name="Layer 1">
    <g>
      <path class="cls-1" d="M1.25,421.58h409.05s45.12-4.01,60.15-65.17v-129.33s-7.02-60.66-66.67-66.67H126.07l-.5-61.32,259.29.79L470.45,0H68.42S8.26,4.01,1.25,72.69v120.31s3.51,57.65,66.67,66.67h276.71l.25,62.91H85.96L1.25,421.58Z"/>
      <path class="cls-1" d="M1618.9,432.43h-993.56V105.76h218.9v217.25h-200.49v98.57h257.64s57.15-6.02,63.18-66.5V64.34s-1.34-52.15-65.85-64.17h-328.18s-60.48,6.02-67.18,67.49v364.76H0v28.01h503.36v119.56l121.98-116.98v-2.58h993.56v-28.01Z"/>
      <path class="cls-1" d="M1063.97,420.91h492.1c55.81-7.69,62.83-64.83,62.83-64.83V1.84h-120.31v320.49h-128.33V.17l-119.81,106.11v216.05h-128.83V.17h-120.43v355.41c.38,54.06,62.79,65.33,62.79,65.33Z"/>
      <path class="cls-1" d="M679.24,527.65c-3.58-1.59-9.23-3.16-16.95-4.72-4.62-.93-7.58-2.02-8.89-3.28-1.31-1.26-1.97-2.79-1.97-4.6,0-4.55,3.51-6.82,10.52-6.82,6.57,0,10.87,3,12.9,8.99l15.09-5.05c-4.25-11.87-13.8-17.81-28.65-17.81-8.39,0-15.03,2.31-19.93,6.94-4.9,4.62-7.34,10.3-7.34,17.03s2.05,11.71,6.15,15.17c4.1,3.46,10.97,6.19,20.61,8.19,5.17,1.08,8.66,2.22,10.47,3.44,1.81,1.22,2.72,2.94,2.72,5.16s-1,4.06-2.99,5.63-5.02,2.36-9.08,2.36c-8.42,0-13.55-3.53-15.39-10.6l-16.42,3.72c1.74,6.95,5.33,12.2,10.78,15.73s12.06,5.3,19.82,5.3c10.35,0,18.15-2.5,23.42-7.49,5.27-4.99,7.9-10.91,7.9-17.75,0-4.36-1.23-8.31-3.69-11.84-2.46-3.53-5.48-6.09-9.06-7.68Z"/>
      <path class="cls-1" d="M765.75,497.65c-3.53-1.42-8.63-2.14-15.28-2.14h-29.85v75.73h18.03v-28.13h12.48c5.4,0,9.37-.33,11.9-1s5.15-2.02,7.85-4.05c2.7-2.03,4.79-4.83,6.27-8.38s2.22-7.19,2.22-10.93c0-5.33-1.39-9.82-4.16-13.48-2.77-3.66-5.93-6.21-9.46-7.63ZM758.85,526.31c-1.78,2.03-4.86,3.05-9.27,3.05h-11.54v-20.08h11.48c4.03,0,7.04.91,9.02,2.72s2.97,4.25,2.97,7.32c0,2.63-.89,4.96-2.66,6.99Z"/>
      <path class="cls-1" d="M835.28,494.35c-10.46,0-18.52,3.7-24.17,11.1-5.65,7.4-8.48,16.62-8.48,27.68s2.79,20.14,8.37,27.8c5.58,7.66,13.47,11.48,23.67,11.48s18.74-3.77,24.28-11.32c5.55-7.55,8.32-16.81,8.32-27.8,0-10.17-2.69-19.2-8.07-27.1-5.38-7.9-13.35-11.85-23.92-11.85ZM835.17,557.93c-9.3,0-13.95-8.19-13.95-24.58s4.65-24.52,13.95-24.52,13.51,8.19,13.51,24.58-4.5,24.52-13.51,24.52Z"/>
      <path class="cls-1" d="M956.88,518.19c0-4.66-1.22-8.89-3.66-12.7-2.44-3.81-5.52-6.42-9.24-7.85-3.72-1.42-8.65-2.14-14.79-2.14h-33.29v75.73h17.86v-30.02h12.71l11.63,30.02h19.6l-13.98-33.48c8.77-3.96,13.15-10.48,13.15-19.57ZM936.68,524.23c-1.26,1.72-2.69,2.83-4.3,3.33-1.61.5-4.19.75-7.74.75h-10.87v-19.31h10.49c4.07,0,6.84.19,8.32.58,1.48.39,2.85,1.41,4.11,3.08,1.26,1.66,1.89,3.55,1.89,5.66,0,2.22-.63,4.19-1.89,5.91Z"/>
      <polygon class="cls-1" points="980.03 510.49 998.89 510.49 998.89 571.25 1016.87 571.25 1016.87 510.49 1035.62 510.49 1035.62 495.51 980.03 495.51 980.03 510.49"/>
      <path class="cls-1" d="M1103.28,527.65c-3.58-1.59-9.23-3.16-16.95-4.72-4.62-.93-7.58-2.02-8.89-3.28-1.31-1.26-1.97-2.79-1.97-4.6,0-4.55,3.5-6.82,10.52-6.82,6.57,0,10.87,3,12.9,8.99l15.09-5.05c-4.25-11.87-13.8-17.81-28.66-17.81-8.39,0-15.03,2.31-19.93,6.94-4.9,4.62-7.34,10.3-7.34,17.03s2.05,11.71,6.15,15.17c4.1,3.46,10.97,6.19,20.61,8.19,5.17,1.08,8.66,2.22,10.47,3.44,1.81,1.22,2.72,2.94,2.72,5.16s-1,4.06-2.99,5.63c-1.99,1.57-5.02,2.36-9.08,2.36-8.42,0-13.55-3.53-15.39-10.6l-16.42,3.72c1.74,6.95,5.33,12.2,10.78,15.73s12.06,5.3,19.82,5.3c10.35,0,18.15-2.5,23.42-7.49,5.27-4.99,7.9-10.91,7.9-17.75,0-4.36-1.23-8.31-3.68-11.84-2.46-3.53-5.48-6.09-9.06-7.68Z"/>
      <path class="cls-1" d="M1255.66,541.73c-.48,2.22-.85,3.81-1.11,4.77l-12.73-50.99h-16.36l-12.4,50.99c-.26-1.03-.46-1.81-.61-2.33-.37-1.41-.57-2.22-.61-2.44l-10.44-46.22h-18.1l19.48,75.73h17.3l12.02-50.1,12.45,50.1h17.43l19.02-75.73h-14.59l-10.74,46.22Z"/>
      <path class="cls-1" d="M1334.01,494.35c-10.46,0-18.52,3.7-24.17,11.1-5.65,7.4-8.48,16.62-8.48,27.68s2.79,20.14,8.37,27.8c5.58,7.66,13.47,11.48,23.67,11.48s18.74-3.77,24.28-11.32c5.55-7.55,8.32-16.81,8.32-27.8,0-10.17-2.69-19.2-8.07-27.1-5.38-7.9-13.35-11.85-23.92-11.85ZM1333.9,557.93c-9.3,0-13.95-8.19-13.95-24.58s4.65-24.52,13.95-24.52,13.51,8.19,13.51,24.58-4.5,24.52-13.51,24.52Z"/>
      <path class="cls-1" d="M1455.61,518.19c0-4.66-1.22-8.89-3.66-12.7-2.44-3.81-5.52-6.42-9.24-7.85-3.72-1.42-8.65-2.14-14.79-2.14h-33.29v75.73h17.86v-30.02h12.71l11.63,30.02h19.6l-13.98-33.48c8.77-3.96,13.15-10.48,13.15-19.57ZM1435.41,524.23c-1.26,1.72-2.69,2.83-4.3,3.33-1.61.5-4.19.75-7.74.75h-10.87v-19.31h10.49c4.07,0,6.84.19,8.32.58,1.48.39,2.85,1.41,4.11,3.08,1.26,1.66,1.89,3.55,1.89,5.66,0,2.22-.63,4.19-1.89,5.91Z"/>
      <polygon class="cls-1" points="1504.33 495.51 1486.36 495.51 1486.36 571.25 1534.46 571.25 1534.46 556.27 1504.33 556.27 1504.33 495.51"/>
      <path class="cls-1" d="M1617.2,511.8c-3.66-5.64-7.8-9.76-12.42-12.37-4.62-2.61-11.64-3.91-21.07-3.91h-23.11v75.73h26.05c11.23,0,20.05-3.63,26.44-10.9,6.39-7.27,9.59-16.32,9.59-27.16,0-8.62-1.83-15.75-5.49-21.39ZM1599.72,549.75c-3.14,4.83-7.93,7.24-14.39,7.24h-7.31v-47.55h7.47c3.73,0,6.92.79,9.58,2.36s4.88,4.31,6.67,8.21c1.79,3.9,2.69,8.15,2.69,12.73,0,6.51-1.57,12.18-4.71,17Z"/>
    </g>
  </g>
</svg>